<svg id="logo" xmlns="http://www.w3.org/2000/svg" viewBox="0 0 1837.15232 509.56787"><defs><style>.cls-1{fill:#00c8aa;}.cls-2{fill:#fff;}</style></defs><title>meemoo-secondary_logo_lockup-neg-rgb</title><path id="symbol" class="cls-1" d="M372.56666,261.31837a.08323.08323,0,0,1,.08984.08984V363.09166H493.27814V146.47645H372.6565V248.15967s0,.08112-.11288.08112a.07626.07626,0,0,1-.07636-.08112,114.00794,114.00794,0,1,0,0,13.24853A.09.09,0,0,1,372.56666,261.31837Z"/><path id="meemoo" class="cls-2" d="M830.548,192.94629v85.15576H794.66367v-73.563c0-19.32129-9.79907-29.94873-26.08483-29.94873-15.45777,0-28.29346,10.0752-28.29346,30.22559v73.28613h-36.022v-73.563c0-19.32129-9.661-29.94873-26.08484-29.94873-15.45777,0-28.29346,10.0752-28.29346,30.22559v73.28613h-36.022V144.36475h35.05591v15.73388c9.523-14.21631,24.15271-19.32275,39.33471-19.32275,19.322,0,35.194,8.69531,44.165,22.91162,10.351-16.97607,27.87891-22.91162,45.40686-22.91162C809.29344,140.77588,830.548,161.89307,830.548,192.94629Zm152.755,18.08057a103.24248,103.24248,0,0,1-.68994,12.145H887.79624c3.86426,19.32275,17.3899,27.74121,34.366,27.74121,11.59314,0,24.15271-4.69336,33.81372-12.835l21.11646,23.18555c-15.18164,13.93945-34.504,20.28809-57.00074,20.28809-40.99035,0-69.42187-27.87891-69.42187-69.97266,0-42.09521,27.60315-70.80322,67.62781-70.80322C956.80393,140.77588,983.1649,169.34619,983.303,211.02686ZM887.9343,198.605h59.20862c-3.31238-17.11377-13.66369-26.77441-29.12146-26.77441C901.04575,171.83057,891.10862,182.04346,887.9343,198.605Zm240.81849,12.42188a103.32014,103.32014,0,0,1-.68995,12.145h-94.81677c3.86426,19.32275,17.38989,27.74121,34.366,27.74121,11.59314,0,24.15271-4.69336,33.81372-12.835l21.11645,23.18555c-15.18164,13.93945-34.504,20.28809-57.00036,20.28809-40.99072,0-69.42224-27.87891-69.42224-69.97266,0-42.09521,27.60315-70.80322,67.62781-70.80322C1102.25376,140.77588,1128.61472,169.34619,1128.75279,211.02686ZM1033.38413,198.605h59.20862c-3.31238-17.11377-13.66369-26.77441-29.12146-26.77441C1046.49558,171.83057,1036.55845,182.04346,1033.38413,198.605Zm333.15088-5.65869v85.15576h-35.88427v-73.563c0-19.32129-9.79908-29.94873-26.08484-29.94873-15.45777,0-28.29346,10.0752-28.29346,30.22559v73.28613h-36.022v-73.563c0-19.32129-9.661-29.94873-26.08484-29.94873-15.45777,0-28.29346,10.0752-28.29346,30.22559v73.28613h-36.022V144.36475h35.05591v15.73388c9.523-14.21631,24.15271-19.32275,39.33471-19.32275,19.322,0,35.194,8.69531,44.165,22.91162,10.351-16.97607,27.87891-22.91162,45.40686-22.91162C1345.2805,140.77588,1366.535,161.89307,1366.535,192.94629Zm164.76233,18.21826c0,40.30078-30.77746,70.38721-72.45813,70.38721-41.5426,0-72.18237-30.08643-72.18237-70.38721s30.63977-70.38867,72.18237-70.38867C1500.51988,140.77588,1531.29734,170.86377,1531.29734,211.16455Zm-107.92822,0c0,21.668,15.18164,36.84961,35.47009,36.84961s35.60816-15.18164,35.60816-36.84961-15.31971-36.85107-35.60816-36.85107S1423.36912,189.49658,1423.36912,211.16455Zm265.38464,0c0,40.30078-30.77746,70.38721-72.45813,70.38721-41.5426,0-72.18237-30.08643-72.18237-70.38721s30.63977-70.38867,72.18237-70.38867C1657.9763,140.77588,1688.75376,170.86377,1688.75376,211.16455Zm-107.92822,0c0,21.668,15.18164,36.84961,35.47009,36.84961s35.60816-15.18164,35.60816-36.84961-15.3197-36.85107-35.60816-36.85107S1580.82554,189.49658,1580.82554,211.16455Z"/><path id="vlaams_instituut_voor_het_archief" data-name="vlaams instituut voor het archief" class="cls-2" d="M652.06223,326.12549,637.88,368.10205h-9.83459l-14.18225-41.97656h8.69531l10.46411,33.041,10.52417-33.041Zm31.65345,34.36084v7.61572h-27.405V326.12549h8.21557v34.36084Zm28.801-1.88965H697.07505l-3.05823,9.50537h-8.5155l14.51221-41.97656H709.728l14.5122,41.97656h-8.66528Zm-2.42871-7.46484-5.30713-16.43116-5.2771,16.43116Zm42.11792,7.46484H736.76426l-3.05823,9.50537h-8.5155l14.51221-41.97656h9.71447l14.51221,41.97656h-8.66528Zm-2.42871-7.46484-5.30713-16.43116-5.2771,16.43116Zm60.5874,16.97021h-8.15551v-30.8833l-8.755,24.1377h-8.33533l-8.75537-24.01758v30.76318h-8.18554V326.12549h11.57373l9.53466,25.51611,9.53467-25.51611h11.5437Zm33.15894-31.54248a17.27335,17.27335,0,0,0-10.22461-3.44824c-3.98767,0-6.83606,1.76953-6.83606,4.79736,0,2.81836,2.90845,4.01807,7.46594,5.0669l2.4884.56982c7.31617,1.67871,11.87366,5.33789,11.87366,11.96338,0,8.84473-7.2561,13.25244-15.80127,13.25244-6.32666,0-12.14355-2.12842-16.01147-5.69678l4.73767-6.17578a17.20626,17.20626,0,0,0,11.2738,4.25684c4.04773,0,7.07593-1.73877,7.07593-4.85742,0-2.7583-2.39868-4.01661-7.196-5.0669l-2.72828-.59912c-7.70581-1.68018-11.81359-5.69678-11.81359-12.353,0-7.73584,6.41638-12.8042,15.26147-12.8042a24.09333,24.09333,0,0,1,14.75208,4.76807Zm31.68823,31.54248h-8.21558V326.12549h8.21558Zm41.74512,0H909.1013l-18.11023-27.28564v27.28564h-8.15552V326.12549h7.85559l18.14026,27.34424V326.12549h8.12549Zm33.1549-31.54248a17.27332,17.27332,0,0,0-10.2246-3.44824c-3.98768,0-6.83606,1.76953-6.83606,4.79736,0,2.81836,2.90844,4.01807,7.46594,5.0669l2.4884.56982c7.31616,1.67871,11.87366,5.33789,11.87366,11.96338,0,8.84473-7.2561,13.25244-15.80127,13.25244-6.32666,0-12.14356-2.12842-16.01111-5.69678l4.73731-6.17578a17.20626,17.20626,0,0,0,11.2738,4.25684c4.04773,0,7.07593-1.73877,7.07593-4.85742,0-2.7583-2.39868-4.01661-7.19605-5.0669l-2.72827-.59912c-7.70581-1.68018-11.8136-5.69678-11.8136-12.353,0-7.73584,6.41638-12.8042,15.26148-12.8042a24.09318,24.09318,0,0,1,14.75207,4.76807Zm38.78834-2.81836H977.41648v34.36084h-8.21557V333.74121H957.71726v-7.61572h31.18287Zm12.81994,34.36084H993.5045V326.12549h8.21557Zm35.74878-34.36084h-11.48364v34.36084h-8.21558V333.74121H1006.286v-7.61572h31.18286Zm36.92688,18.98c0,10.25391-6.29626,16.04-16.3407,16.04-10.0448,0-16.37109-5.78613-16.37109-16.04v-26.5957h8.21557v26.17529c0,5.84619,3.2981,8.5459,8.15552,8.5459,4.85706,0,8.15552-2.69971,8.15552-8.5459V326.12549h8.18518Zm39.59912,0c0,10.25391-6.29626,16.04-16.3407,16.04-10.0448,0-16.37109-5.78613-16.37109-16.04v-26.5957h8.21558v26.17529c0,5.84619,3.29809,8.5459,8.15551,8.5459,4.85706,0,8.15552-2.69971,8.15552-8.5459V326.12549h8.18518Zm35.40161-18.98h-11.48364v34.36084h-8.21558V333.74121H1118.2136v-7.61572h31.18286Zm50.5459-7.61572-14.18225,41.97656h-9.83459l-14.18226-41.97656h8.69532l10.46411,33.041,10.52417-33.041ZM1239.93,347.11377c0,13.043-7.85559,21.67822-19.459,21.67822-11.60376,0-19.45935-8.63525-19.45935-21.67822s7.85559-21.67822,19.45935-21.67822C1232.07444,325.43555,1239.93,334.0708,1239.93,347.11377Zm-30.4032,0c0,8.60449,4.49744,13.73291,10.94422,13.73291,6.44641,0,10.94385-5.12842,10.94385-13.73291,0-8.606-4.49744-13.73291-10.94385-13.73291C1214.02427,333.38086,1209.52683,338.50781,1209.52683,347.11377Zm73.84314,0c0,13.043-7.85559,21.67822-19.459,21.67822-11.60376,0-19.45935-8.63525-19.45935-21.67822s7.85559-21.67822,19.45935-21.67822C1275.51438,325.43555,1283.37,334.0708,1283.37,347.11377Zm-30.40319,0c0,8.60449,4.49743,13.73291,10.94421,13.73291,6.44641,0,10.94385-5.12842,10.94385-13.73291,0-8.606-4.49744-13.73291-10.94385-13.73291C1257.46421,333.38086,1252.96678,338.50781,1252.96678,347.11377Zm46.76806,4.46777h-2.06872v16.52051h-8.21558V326.12549H1305.102c9.38489,0,14.692,4.85742,14.692,12.95215,0,6.627-4.16785,11.18408-11.24414,12.26367l11.57373,16.76074h-9.65479Zm-2.06872-6.98584h7.34582c3.988,0,6.38672-1.80029,6.38672-5.51806,0-3.687-2.45874-5.42725-6.38672-5.42725h-7.34582Zm74.14563-18.47021v41.97656h-8.18555V350.71143h-16.91052v17.39062h-8.21558V326.12549h8.21558v17.001h16.91052v-17.001Zm35.49279,34.51025v7.46631h-27.85473V326.12549h27.76465v7.46484h-19.54908v9.59473h18.52991v7.46631h-18.52991v9.98437Zm35.0094-26.89453H1430.8303v34.36084h-8.21558V333.74121h-11.48364v-7.61572h31.18286Zm39.54236,24.85547h-15.44165l-3.05823,9.50537h-8.5155l14.51221-41.97656h9.71448l14.5122,41.97656h-8.66528Zm-2.42871-7.46484-5.30713-16.43116-5.2771,16.43116Zm28.68494.4497h-2.06873v16.52051h-8.21557V326.12549h15.65148c9.38489,0,14.692,4.85742,14.692,12.95215,0,6.627-4.16785,11.18408-11.24414,12.26367l11.57373,16.76074h-9.65478Zm-2.06873-6.98584h7.34583c3.988,0,6.38672-1.80029,6.38672-5.51806,0-3.687-2.45874-5.42725-6.38672-5.42725h-7.34583Zm61.96619-9.68554-7.0763,3.86865a9.91675,9.91675,0,0,0-8.99487-5.398c-6.29663,0-10.8241,5.127-10.8241,13.73291.03,8.90478,4.76734,13.73291,10.85413,13.73291a10.14567,10.14567,0,0,0,9.05493-5.36719l6.77637,4.2876a17.45222,17.45222,0,0,1-15.8313,9.0249c-11.51367,0-19.36926-8.5459-19.36926-21.67822s7.85559-21.67822,19.36926-21.67822C1559.07481,325.43555,1565.07151,328.94385,1568.01,334.91016Zm38.84985-8.78467v41.97656h-8.18555V350.71143h-16.91052v17.39062h-8.21557V326.12549h8.21557v17.001h16.91052v-17.001Zm15.85364,41.97656h-8.21558V326.12549h8.21558Zm35.47852-7.46631v7.46631h-27.85474V326.12549h27.76465v7.46484h-19.54907v9.59473h18.5299v7.46631h-18.5299v9.98437Zm15.10034-27.04541v9.92578h17.96008V350.981h-17.96008v17.12109h-8.21558V326.12549h27.43506v7.46484Z"/></svg>